<svg width="60" height="60" viewBox="0 0 60 60" fill="none" xmlns="http://www.w3.org/2000/svg">
<path d="M51.7825 20.32L51.1675 21.735C51.0714 21.9654 50.9092 22.1623 50.7015 22.3007C50.4937 22.4391 50.2497 22.513 50 22.513C49.7503 22.513 49.5063 22.4391 49.2985 22.3007C49.0908 22.1623 48.9286 21.9654 48.8325 21.735L48.2175 20.32C47.1362 17.8168 45.1559 15.8098 42.6675 14.695L40.77 13.8475C40.5398 13.7416 40.3448 13.5719 40.2081 13.3586C40.0714 13.1452 39.9987 12.8972 39.9987 12.6438C39.9987 12.3904 40.0714 12.1423 40.2081 11.9289C40.3448 11.7156 40.5398 11.5459 40.77 11.44L42.5625 10.6425C45.1135 9.49596 47.1276 7.41472 48.19 4.82752L48.8225 3.30002C48.9154 3.0634 49.0774 2.86026 49.2875 2.71708C49.4975 2.5739 49.7458 2.49731 50 2.49731C50.2542 2.49731 50.5025 2.5739 50.7125 2.71708C50.9226 2.86026 51.0846 3.0634 51.1775 3.30002L51.81 4.82502C52.8712 7.41271 54.8845 9.49485 57.435 10.6425L59.23 11.4425C59.4595 11.5487 59.6538 11.7184 59.79 11.9315C59.9262 12.1445 59.9986 12.3921 59.9986 12.645C59.9986 12.8979 59.9262 13.1455 59.79 13.3586C59.6538 13.5717 59.4595 13.7413 59.23 13.8475L57.33 14.6925C54.842 15.8084 52.8627 17.8163 51.7825 20.32ZM50 27.5C51.703 27.5017 53.3938 27.2135 55 26.6475V50.0175C54.9954 50.6741 54.7327 51.3025 54.2687 51.767C53.8047 52.2315 53.1765 52.4948 52.52 52.5H7.48C6.82203 52.4994 6.19124 52.2375 5.72622 51.772C5.26121 51.3065 5 50.6755 5 50.0175V9.98252C5.00458 9.32596 5.26725 8.69756 5.73128 8.23306C6.19531 7.76856 6.82345 7.50525 7.48 7.50002H35.855C35.055 9.76271 34.8096 12.1843 35.1395 14.5615C35.4693 16.9387 36.3647 19.202 37.7505 21.1614C39.1363 23.1209 40.972 24.7192 43.1035 25.8221C45.235 26.9251 47.6 27.5005 50 27.5ZM26.555 21.0375C26.4045 20.9371 26.2297 20.8794 26.049 20.8706C25.8684 20.8617 25.6887 20.902 25.5291 20.9872C25.3695 21.0723 25.2361 21.1992 25.1429 21.3542C25.0497 21.5092 25.0003 21.6866 25 21.8675V38.1325C25.0003 38.3134 25.0497 38.4908 25.1429 38.6458C25.2361 38.8008 25.3695 38.9277 25.5291 39.0129C25.6887 39.098 25.8684 39.1383 26.049 39.1295C26.2297 39.1206 26.4045 39.0629 26.555 38.9625L38.7525 30.8325C38.8897 30.7412 39.0021 30.6175 39.08 30.4722C39.1578 30.327 39.1985 30.1648 39.1985 30C39.1985 29.8353 39.1578 29.673 39.08 29.5278C39.0021 29.3826 38.8897 29.2588 38.7525 29.1675L26.555 21.0375Z" fill="black"/>
</svg>
